<svg width="1011" height="557" viewBox="0 0 1011 557" fill="none" xmlns="http://www.w3.org/2000/svg">
<path d="M890.725 444.388L829.854 364.479L683.711 556.191H808.837L892.387 446.561L890.725 444.388Z" fill="#FFC107"/>
<path d="M763.998 278.095L829.851 364.479L683.714 556.191H552L763.998 278.095Z" fill="#0F9D58"/>
<path opacity="0.2" d="M808.837 551.846H687.033L683.711 556.191H808.837L892.387 446.561L890.725 444.388L808.837 551.846Z" fill="#BF360C"/>
<path opacity="0.2" d="M555.322 551.846L552 556.191H683.711L687.033 551.846H555.322Z" fill="#263238"/>
<path opacity="0.2" d="M552 556.191H555.322L765.655 280.269L763.995 278.095L552 556.191Z" fill="white"/>
<path d="M892.388 446.561L829.854 364.479L814.505 384.597L892.388 446.561Z" fill="url(#paint0_radial_59_54)"/>
<path d="M814.505 384.597L829.854 364.479L763.998 278.095L732.559 319.376L814.505 384.597Z" fill="url(#paint1_radial_59_54)"/>
<path d="M683.711 0H552L892.388 446.561L958.185 360.22L958.243 360.134L683.711 0Z" fill="#4285F4"/>
<path d="M1000.9 304.167C1006.95 296.245 1010.14 287.251 1010.14 278.095C1010.14 268.94 1006.95 259.946 1000.9 252.023L808.837 0H683.711L958.243 360.134L1000.9 304.167Z" fill="#DB4437"/>
<path opacity="0.2" d="M958.243 360.134L956.581 358.005L892.388 442.216L555.322 0H552L892.388 446.561L958.185 360.22L958.243 360.134Z" fill="#1A237E"/>
<path opacity="0.2" d="M808.837 4.34496L1000.9 256.368C1006.57 263.799 1009.49 272.013 1009.95 280.269C1010.47 270.536 1007.55 260.713 1000.9 252.023L808.837 0H552L555.322 4.34496H808.837Z" fill="white"/>
<path opacity="0.2" d="M958.243 360.134L1000.9 304.167C1007.55 295.477 1010.47 285.657 1009.95 275.922C1009.49 284.178 1006.57 292.392 1000.9 299.822L956.581 358.004L958.243 360.134Z" fill="#3E2723"/>
<path d="M1000.9 252.023L808.837 0H552L763.998 278.095L552 556.191H808.837L1000.9 304.167C1006.95 296.245 1010.14 287.251 1010.14 278.095C1010.14 268.94 1006.95 259.946 1000.9 252.023Z" fill="url(#paint2_radial_59_54)"/>
<path d="M119.413 111.803L180.284 191.712L326.427 -4.489e-05H201.301L117.751 109.63L119.413 111.803Z" fill="#FFC107"/>
<path d="M246.141 278.095L180.289 191.712L326.425 5.00679e-06H458.14L246.141 278.095Z" fill="#0F9D58"/>
<path opacity="0.2" d="M201.301 4.34493L323.105 4.34493L326.427 -4.40089e-05L201.301 -4.40089e-05L117.751 109.63L119.413 111.803L201.301 4.34493Z" fill="#BF360C"/>
<path opacity="0.2" d="M454.818 4.34485L458.14 -0.000121258L326.428 -0.000121258L323.106 4.34485L454.818 4.34485Z" fill="#263238"/>
<path opacity="0.2" d="M458.14 5.00679e-06H454.818L244.485 275.922L246.144 278.095L458.14 5.00679e-06Z" fill="white"/>
<path d="M117.75 109.63L180.284 191.712L195.633 171.594L117.75 109.63Z" fill="url(#paint3_radial_59_54)"/>
<path d="M195.633 171.594L180.284 191.712L246.14 278.095L277.579 236.815L195.633 171.594Z" fill="url(#paint4_radial_59_54)"/>
<path d="M326.428 556.191H458.14L117.752 109.63L51.955 195.971L51.8964 196.057L326.428 556.191Z" fill="#4285F4"/>
<path d="M9.23446 252.023C3.18544 259.946 -7.08225e-05 268.94 -7.08225e-05 278.095C-7.08225e-05 287.251 3.18544 296.245 9.23446 304.167L201.301 556.191H326.427L51.8951 196.057L9.23446 252.023Z" fill="#DB4437"/>
<path opacity="0.2" d="M51.8964 196.057L53.5588 198.186L117.752 113.975L454.818 556.191H458.14L117.752 109.63L51.955 195.971L51.8964 196.057Z" fill="#1A237E"/>
<path opacity="0.2" d="M51.8964 196.057L53.5588 198.186L117.752 113.975L454.818 556.191H458.14L117.752 109.63L51.955 195.971L51.8964 196.057Z" fill="#1A237E"/>
<path opacity="0.2" d="M201.302 551.846L9.23581 299.823C3.56533 292.392 0.645057 284.178 0.187665 275.922C-0.328367 285.655 2.5919 295.478 9.23581 304.167L201.302 556.191H458.14L454.818 551.846H201.302Z" fill="white"/>
<path opacity="0.2" d="M51.8942 196.057L9.23363 252.024C2.58972 260.714 -0.33055 270.534 0.185482 280.269C0.642874 272.013 3.56314 263.799 9.23363 256.369L53.5566 198.187L51.8942 196.057Z" fill="#3E2723"/>
<path d="M379.403 268.5C378.771 266.563 377.936 264.828 376.901 263.294C375.885 261.74 374.667 260.417 373.248 259.324C371.848 258.231 370.256 257.397 368.473 256.822C366.69 256.246 364.734 255.959 362.605 255.959C359.115 255.959 355.941 256.86 353.084 258.663C350.227 260.465 347.955 263.121 346.267 266.63C344.58 270.14 343.736 274.445 343.736 279.545C343.736 284.646 344.589 288.951 346.296 292.461C348.002 295.97 350.313 298.626 353.228 300.428C356.143 302.231 359.422 303.132 363.065 303.132C366.44 303.132 369.413 302.413 371.982 300.975C374.571 299.517 376.585 297.466 378.023 294.819C379.48 292.154 380.209 289.018 380.209 285.413L382.395 285.874H364.676V279.545H387.112V285.874C387.112 290.725 386.077 294.944 384.006 298.53C381.954 302.116 379.116 304.896 375.491 306.871C371.886 308.827 367.744 309.805 363.065 309.805C357.849 309.805 353.266 308.578 349.316 306.124C345.385 303.669 342.317 300.179 340.112 295.653C337.925 291.128 336.832 285.759 336.832 279.545C336.832 274.886 337.456 270.696 338.702 266.975C339.968 263.236 341.751 260.053 344.052 257.426C346.353 254.799 349.076 252.785 352.221 251.385C355.366 249.985 358.827 249.286 362.605 249.286C365.712 249.286 368.607 249.755 371.292 250.695C373.996 251.615 376.402 252.929 378.512 254.636C380.64 256.323 382.414 258.346 383.833 260.705C385.252 263.044 386.23 265.643 386.767 268.5H379.403ZM399.33 309V250.091H419.235C423.837 250.091 427.615 250.877 430.568 252.45C433.521 254.003 435.707 256.141 437.126 258.864C438.545 261.587 439.255 264.684 439.255 268.155C439.255 271.626 438.545 274.703 437.126 277.388C435.707 280.073 433.53 282.182 430.597 283.716C427.663 285.231 423.914 285.989 419.35 285.989H403.242V279.545H419.12C422.264 279.545 424.796 279.085 426.713 278.165C428.65 277.244 430.05 275.94 430.913 274.253C431.795 272.546 432.236 270.513 432.236 268.155C432.236 265.796 431.795 263.735 430.913 261.971C430.031 260.206 428.621 258.845 426.685 257.886C424.748 256.908 422.188 256.419 419.005 256.419H406.463V309H399.33ZM427.059 282.537L441.556 309H433.272L419.005 282.537H427.059ZM468.27 309.92C464.013 309.92 460.341 308.981 457.254 307.102C454.186 305.203 451.817 302.557 450.149 299.163C448.5 295.749 447.675 291.78 447.675 287.254C447.675 282.729 448.5 278.74 450.149 275.288C451.817 271.817 454.138 269.114 457.11 267.177C460.101 265.221 463.591 264.243 467.58 264.243C469.881 264.243 472.154 264.626 474.397 265.393C476.641 266.161 478.683 267.407 480.524 269.133C482.365 270.839 483.832 273.102 484.925 275.921C486.018 278.74 486.564 282.211 486.564 286.334V289.21H452.508V283.342H479.661C479.661 280.849 479.162 278.625 478.165 276.669C477.187 274.713 475.787 273.169 473.966 272.038C472.163 270.907 470.035 270.341 467.58 270.341C464.876 270.341 462.537 271.012 460.562 272.354C458.606 273.678 457.1 275.403 456.046 277.532C454.991 279.661 454.464 281.942 454.464 284.378V288.29C454.464 291.626 455.039 294.455 456.189 296.775C457.359 299.076 458.98 300.831 461.051 302.039C463.122 303.228 465.528 303.822 468.27 303.822C470.054 303.822 471.665 303.573 473.103 303.075C474.56 302.557 475.816 301.79 476.871 300.773C477.926 299.738 478.741 298.453 479.316 296.919L485.874 298.76C485.184 300.984 484.024 302.94 482.394 304.628C480.764 306.296 478.75 307.6 476.353 308.54C473.956 309.46 471.262 309.92 468.27 309.92ZM531.674 264.818L515.336 309H508.432L492.094 264.818H499.458L511.654 300.026H512.114L524.31 264.818H531.674ZM540.634 309V264.818H547.422V309H540.634ZM544.086 257.455C542.763 257.455 541.622 257.004 540.663 256.103C539.723 255.201 539.253 254.118 539.253 252.852C539.253 251.587 539.723 250.503 540.663 249.602C541.622 248.701 542.763 248.25 544.086 248.25C545.409 248.25 546.54 248.701 547.48 249.602C548.439 250.503 548.918 251.587 548.918 252.852C548.918 254.118 548.439 255.201 547.48 256.103C546.54 257.004 545.409 257.455 544.086 257.455ZM578.38 309.92C574.123 309.92 570.45 308.981 567.363 307.102C564.295 305.203 561.927 302.557 560.258 299.163C558.609 295.749 557.785 291.78 557.785 287.254C557.785 282.729 558.609 278.74 560.258 275.288C561.927 271.817 564.247 269.114 567.219 267.177C570.211 265.221 573.701 264.243 577.689 264.243C579.991 264.243 582.263 264.626 584.507 265.393C586.75 266.161 588.792 267.407 590.633 269.133C592.474 270.839 593.941 273.102 595.034 275.921C596.127 278.74 596.674 282.211 596.674 286.334V289.21H562.617V283.342H589.77C589.77 280.849 589.272 278.625 588.275 276.669C587.297 274.713 585.897 273.169 584.075 272.038C582.273 270.907 580.144 270.341 577.689 270.341C574.986 270.341 572.646 271.012 570.671 272.354C568.715 273.678 567.21 275.403 566.155 277.532C565.1 279.661 564.573 281.942 564.573 284.378V288.29C564.573 291.626 565.148 294.455 566.299 296.775C567.469 299.076 569.089 300.831 571.16 302.039C573.231 303.228 575.638 303.822 578.38 303.822C580.163 303.822 581.774 303.573 583.212 303.075C584.67 302.557 585.926 301.79 586.98 300.773C588.035 299.738 588.85 298.453 589.425 296.919L595.983 298.76C595.293 300.984 594.133 302.94 592.503 304.628C590.873 306.296 588.86 307.6 586.463 308.54C584.066 309.46 581.371 309.92 578.38 309.92ZM617.01 309L603.548 264.818H610.682L620.232 298.645H620.692L630.127 264.818H637.375L646.695 298.53H647.155L656.705 264.818H663.838L650.377 309H643.703L634.039 275.058H633.348L623.683 309H617.01Z" fill="white"/>
<defs>
<radialGradient id="paint0_radial_59_54" cx="0" cy="0" r="1" gradientUnits="userSpaceOnUse" gradientTransform="translate(66375 14727.4) scale(215970 163875)">
<stop stop-color="#BF360C" stop-opacity="0.2"/>
<stop offset="1" stop-color="#BF360C" stop-opacity="0.02"/>
</radialGradient>
<radialGradient id="paint1_radial_59_54" cx="0" cy="0" r="1" gradientUnits="userSpaceOnUse" gradientTransform="translate(135498 29301) scale(217720 165202)">
<stop stop-color="#263238" stop-opacity="0.2"/>
<stop offset="1" stop-color="#263238" stop-opacity="0.02"/>
</radialGradient>
<radialGradient id="paint2_radial_59_54" cx="0" cy="0" r="1" gradientUnits="userSpaceOnUse" gradientTransform="translate(-4327.21 678.753) scale(655495 497383)">
<stop stop-color="white" stop-opacity="0.1"/>
<stop offset="1" stop-color="white" stop-opacity="0"/>
</radialGradient>
<radialGradient id="paint3_radial_59_54" cx="0" cy="0" r="1" gradientUnits="userSpaceOnUse" gradientTransform="translate(-65364.8 -14171.2) rotate(180) scale(215970 163875)">
<stop stop-color="#BF360C" stop-opacity="0.2"/>
<stop offset="1" stop-color="#BF360C" stop-opacity="0.02"/>
</radialGradient>
<radialGradient id="paint4_radial_59_54" cx="0" cy="0" r="1" gradientUnits="userSpaceOnUse" gradientTransform="translate(-134488 -28744.8) rotate(180) scale(217720 165202)">
<stop stop-color="#263238" stop-opacity="0.2"/>
<stop offset="1" stop-color="#263238" stop-opacity="0.02"/>
</radialGradient>
</defs>
</svg>
